<?xml version="1.0" standalone="no"?>
<!DOCTYPE svg PUBLIC "-//W3C//DTD SVG 20010904//EN"
 "http://www.w3.org/TR/2001/REC-SVG-20010904/DTD/svg10.dtd">
<svg version="1.0" xmlns="http://www.w3.org/2000/svg"
 width="750.000000pt" height="750.000000pt" viewBox="0 0 750.000000 750.000000"
 preserveAspectRatio="xMidYMid meet">
<metadata>
Created by potrace 1.14, written by Peter Selinger 2001-2017
</metadata>
<g transform="translate(0.000000,750.000000) scale(0.100000,-0.100000)"
fill="#000000" stroke="none">
<path d="M3627 7004 c-109 -164 -222 -373 -356 -664 -68 -145 -150 -320 -173
-366 -17 -34 -35 -50 -103 -88 -84 -47 -158 -84 -250 -126 -274 -123 -533
-273 -622 -360 -36 -35 -48 -27 -38 26 10 55 104 224 172 309 13 17 27 35 31
40 103 141 376 392 521 480 9 6 18 13 21 16 3 3 52 38 110 79 58 41 107 76
110 79 3 4 30 23 61 43 94 61 137 178 72 194 -40 10 -96 -12 -318 -125 -185
-95 -441 -255 -715 -448 -86 -61 -392 -291 -480 -362 -291 -234 -614 -583
-797 -860 -23 -36 -47 -71 -53 -78 -5 -7 -10 -15 -10 -18 0 -3 -15 -29 -33
-58 -64 -103 -127 -248 -157 -367 -43 -169 -22 -515 41 -672 12 -29 37 -44 52
-29 5 5 26 60 47 123 21 62 52 145 70 183 33 72 52 116 55 125 2 9 74 149 107
208 17 31 73 124 125 205 51 82 93 151 93 153 0 3 27 47 60 100 33 52 60 97
60 100 0 10 67 95 125 158 26 28 163 184 185 211 84 100 150 150 150 114 0 -7
-31 -62 -69 -124 -38 -62 -83 -141 -99 -176 -46 -100 -156 -437 -166 -509 -3
-19 -14 -96 -25 -170 -12 -74 -23 -159 -26 -187 -3 -29 -7 -77 -10 -105 -3
-29 -7 -73 -10 -98 -3 -25 -7 -69 -10 -97 -3 -29 -8 -77 -11 -105 -11 -95 -12
-241 -3 -265 16 -41 41 -12 103 119 58 122 72 152 157 338 24 52 63 133 86
179 45 86 191 313 205 319 4 2 8 8 8 13 0 17 104 151 162 209 64 64 137 130
199 181 133 109 267 216 291 232 32 20 58 22 58 4 0 -7 -31 -75 -69 -152 -64
-128 -86 -170 -178 -335 -17 -30 -72 -147 -123 -260 -51 -113 -124 -270 -162
-350 -60 -125 -93 -197 -163 -355 -14 -33 -103 -310 -109 -341 -2 -10 -11 -44
-19 -74 -14 -50 -32 -131 -44 -199 -7 -42 -11 -223 -6 -263 4 -28 9 -36 18
-30 8 4 91 81 186 172 95 91 196 188 225 215 77 73 204 188 244 221 19 16 37
31 40 35 34 40 587 399 615 399 5 0 1 -148 -9 -360 -3 -47 -7 -152 -11 -235
-6 -157 -15 -307 -20 -334 -1 -9 -6 -63 -10 -121 -4 -58 -9 -112 -10 -120 -2
-8 -6 -53 -10 -100 -4 -47 -8 -101 -10 -120 -2 -19 -6 -73 -10 -120 -4 -47 -8
-92 -10 -100 -2 -8 -6 -53 -10 -100 -4 -47 -9 -94 -11 -105 -2 -11 -7 -45 -10
-75 -3 -30 -7 -66 -9 -80 -2 -14 -7 -52 -10 -85 -4 -33 -8 -67 -10 -75 -2 -8
-7 -42 -11 -75 -3 -33 -7 -67 -9 -75 -1 -8 -6 -35 -10 -60 -4 -25 -9 -54 -12
-65 -2 -11 -6 -35 -9 -53 -8 -57 -31 -102 -53 -102 -10 0 -41 11 -68 25 -58
31 -444 344 -549 447 -41 40 -114 111 -162 158 -48 47 -107 112 -132 144 -105
139 -170 193 -185 154 -16 -41 -10 -110 20 -248 3 -14 7 -37 10 -51 16 -89 62
-235 94 -304 42 -89 127 -209 226 -319 21 -23 141 -162 170 -196 69 -82 412
-408 474 -450 20 -13 41 -28 46 -33 67 -57 303 -210 385 -250 225 -108 251
-117 282 -101 59 30 86 137 103 404 3 47 7 114 10 150 3 36 8 110 10 165 3 55
7 141 10 190 6 105 17 1094 17 1535 1 313 -8 732 -16 785 -2 17 -7 64 -11 105
-3 41 -8 82 -10 90 -2 8 -7 49 -10 90 -3 41 -8 86 -10 100 -9 48 -14 85 -20
140 -3 30 -8 66 -10 80 -2 14 -7 46 -10 72 -23 205 -36 241 -83 233 -15 -2
-57 -9 -94 -15 -86 -13 -224 -58 -319 -104 -70 -33 -296 -175 -329 -207 -8 -8
-47 -41 -85 -74 -39 -33 -72 -62 -75 -65 -3 -3 -40 -36 -83 -74 -76 -67 -102
-78 -79 -33 6 12 25 58 41 102 42 116 90 222 131 287 37 61 139 210 149 218 3
3 22 28 41 55 19 28 39 55 45 62 12 15 20 25 65 83 19 25 37 47 40 50 3 3 25
30 50 60 25 30 47 57 50 60 3 3 38 44 77 92 l72 88 33 -27 c18 -15 35 -30 38
-33 3 -3 41 -33 85 -65 44 -33 82 -63 85 -66 15 -20 194 -92 270 -108 142 -30
200 -31 302 -2 157 44 266 104 392 216 6 6 29 25 52 42 l41 32 26 -32 c14 -18
36 -45 49 -59 13 -14 30 -34 38 -44 15 -20 89 -110 125 -153 11 -13 25 -29 31
-35 11 -12 126 -162 159 -208 86 -120 186 -271 205 -313 34 -71 139 -339 135
-344 -4 -3 -94 73 -285 240 -67 58 -271 199 -288 199 -6 0 -12 4 -14 8 -4 11
-110 60 -193 89 -38 13 -77 27 -85 30 -24 10 -31 11 -129 26 -52 8 -100 13
-107 10 -19 -7 -32 -51 -44 -153 -6 -52 -14 -108 -16 -125 -3 -16 -7 -46 -10
-65 -8 -68 -16 -135 -19 -151 -2 -8 -6 -48 -10 -88 -3 -40 -8 -80 -10 -89 -2
-15 -7 -60 -20 -182 -16 -146 -19 -297 -17 -905 2 -1112 8 -1474 27 -1740 3
-33 7 -107 10 -165 16 -288 49 -443 100 -470 35 -19 65 -9 238 74 142 68 202
102 278 161 14 11 35 26 45 33 101 68 203 146 269 206 254 233 291 270 420
420 33 38 71 81 84 95 30 33 169 206 197 246 47 67 111 224 128 311 2 11 9 39
16 64 7 25 14 53 16 62 2 10 6 28 9 41 32 134 30 247 -5 247 -25 0 -97 -73
-169 -172 -53 -72 -375 -377 -545 -516 -246 -201 -258 -210 -310 -233 -64 -28
-82 -20 -96 44 -19 89 -41 223 -55 332 -2 21 -9 73 -14 115 -11 85 -18 143
-26 215 -3 28 -8 66 -10 85 -4 32 -7 60 -20 190 -3 25 -7 77 -10 115 -3 39 -8
90 -10 115 -2 25 -7 74 -10 110 -3 36 -7 90 -10 120 -19 210 -25 290 -30 400
-3 69 -8 163 -10 210 -2 47 -7 157 -10 245 -4 88 -8 177 -10 197 -5 43 9 57
34 34 10 -9 20 -16 23 -16 11 0 195 -113 333 -205 161 -106 227 -157 334 -254
123 -111 147 -133 529 -499 36 -34 68 -60 71 -57 18 19 15 244 -4 335 -3 14
-10 48 -15 75 -31 153 -128 456 -193 600 -25 55 -81 176 -126 268 -45 92 -81
170 -81 172 0 2 -15 36 -34 77 -19 40 -57 124 -85 187 -28 62 -65 139 -83 170
-17 31 -48 88 -70 126 -21 39 -70 133 -108 210 -73 145 -77 172 -23 145 27
-14 93 -59 103 -71 3 -3 43 -36 90 -74 201 -161 331 -281 395 -365 49 -64 215
-309 215 -318 0 -3 6 -13 14 -21 23 -26 101 -180 177 -349 131 -292 192 -412
211 -412 25 0 30 14 30 83 1 63 -10 230 -17 257 -2 8 -7 49 -10 90 -3 41 -8
86 -10 100 -2 14 -7 59 -10 100 -6 76 -12 130 -19 166 -2 12 -7 45 -11 74 -4
29 -9 62 -11 74 -5 22 -8 45 -19 115 -11 65 -137 447 -170 511 -15 30 -46 84
-69 120 -51 80 -96 157 -96 164 0 13 38 5 56 -13 30 -28 103 -109 169 -186 33
-39 65 -74 71 -80 6 -5 35 -39 65 -75 30 -35 61 -72 69 -81 14 -16 168 -267
180 -294 3 -6 33 -55 68 -110 35 -55 69 -109 75 -120 7 -10 23 -37 36 -60 76
-125 214 -433 255 -566 28 -94 46 -119 70 -99 18 14 42 84 56 160 6 30 13 66
16 80 3 14 7 104 9 200 4 186 -3 234 -55 375 -20 55 -87 196 -121 255 -37 64
-212 319 -241 352 -18 20 -47 54 -65 75 -213 259 -462 497 -718 688 -44 32
-82 62 -85 65 -3 3 -18 14 -35 24 -16 11 -37 25 -45 33 -8 8 -51 40 -95 71
-44 31 -82 59 -85 63 -3 3 -108 75 -235 159 -126 83 -242 161 -258 171 -15 11
-124 69 -242 130 -228 116 -296 139 -324 105 -17 -21 -7 -73 22 -117 13 -19
54 -55 92 -82 39 -26 78 -54 88 -62 9 -8 21 -15 26 -15 5 0 11 -4 13 -8 3 -7
204 -154 263 -193 27 -17 134 -111 243 -214 81 -77 193 -212 260 -314 77 -118
134 -255 115 -275 -3 -3 -29 14 -57 38 -114 97 -328 221 -581 336 -129 59
-200 94 -279 139 l-80 46 -64 135 c-35 74 -79 167 -97 205 -126 271 -232 483
-287 574 -21 34 -38 67 -38 72 0 5 -4 9 -8 9 -5 0 -14 10 -21 23 -18 35 -47
79 -132 199 l-26 37 -116 -175z m142 -582 c43 -61 137 -309 123 -324 -4 -4
-23 -3 -43 1 -43 10 -182 7 -222 -4 -28 -8 -29 -7 -23 31 13 77 116 324 137
324 4 0 17 -13 28 -28z m99 -752 c62 -20 80 -31 120 -75 69 -76 103 -145 110
-221 8 -105 -20 -184 -90 -253 -100 -98 -218 -127 -356 -85 -154 47 -237 140
-257 288 -9 66 17 156 65 220 65 90 86 106 156 131 83 29 149 28 252 -5z"/>
</g>
</svg>
